<svg xmlns="http://www.w3.org/2000/svg" width="783.574" height="464.726" viewBox="0 0 783.574 464.726">
  <g id="Group_1" data-name="Group 1" transform="translate(0 0)">
    <path id="Path_1" data-name="Path 1" d="M776.529,441.056a9.377,9.377,0,0,1,13.828,3.939l21.42-.566,3.519,12.934-30.261.374a9.428,9.428,0,0,1-8.506-16.68Z" transform="translate(-208.213 -217.637)" fill="#ffb8b8"/>
    <path id="Path_2" data-name="Path 2" d="M800.554,461.73a7.177,7.177,0,0,1-2.269-4.771l-.857-12.857a7.153,7.153,0,0,1,2.784-6.16l34.535-26.533,20.075-24.368a12.569,12.569,0,0,1,17.06-2.176h0a12.55,12.55,0,0,1,2.671,17.679L851.17,433.763l-16.647,17.63a36.207,36.207,0,0,1-19.788,10.7l-8.032,1.442a7.172,7.172,0,0,1-5.68-1.407Q800.779,461.94,800.554,461.73Z" transform="translate(-208.213 -217.637)" fill="#6c63ff"/>
    <path id="Path_3" data-name="Path 3" d="M750.584,445.362l-11.091,2.77L723.53,406.669l16.37-4.088Z" fill="#ffb8b8"/>
    <path id="Path_4" data-name="Path 4" d="M940.552,663.383H962.6v13.882H926.67a13.882,13.882,0,0,1,13.882-13.882Z" transform="translate(-342.478 31.209) rotate(-14.022)" fill="#2f2e41"/>
    <path id="Path_5" data-name="Path 5" d="M650.479,453.158H639.047l-5.436-44.1h16.872Z" fill="#ffb8b8"/>
    <path id="Path_6" data-name="Path 6" d="M630.881,449.89h22.048v13.882H617a13.882,13.882,0,0,1,13.882-13.882Z" fill="#2f2e41"/>
    <circle id="Ellipse_1" data-name="Ellipse 1" cx="24.561" cy="24.561" r="24.561" transform="translate(620.962 85.757)" fill="#ffb8b8"/>
    <path id="Path_7" data-name="Path 7" d="M853.689,328.825c.045-3.285,5.7-3.7,7.46-.9s.631,6.453-.921,9.368c-1.615,3.035-3.71,6.1-3.387,9.547a5.2,5.2,0,0,0,7.963,3.718c8.023-4.94,14.8-12.13,17.792-20.893,3.151-9.216,1.577-20.2-5.239-27.284s-19.036-9.084-27.126-3.423l-13.809-9.405a1.927,1.927,0,0,0-2.965,2.1l2.019,6.563-6.975-1.755a1.533,1.533,0,0,0-1.712,2.287l2.395,3.72c-3.193-2.627-8.71.367-9.168,4.419s2.836,7.787,6.708,9.314,8.2,1.353,12.369,1.155a9.823,9.823,0,0,0,4.557,10.575C847.258,330.02,852.24,329.527,853.689,328.825Z" transform="translate(-208.213 -217.637)" fill="#2f2e41"/>
    <path id="Path_8" data-name="Path 8" d="M859.01,652.174c-.047,0-.095,0-.143,0l-17.658-.55a4.5,4.5,0,0,1-4.353-4.743l8.832-162.167,67.86,19.244,44.5,138.783a4.5,4.5,0,0,1-4.166,5.873l-20.338.54a4.542,4.542,0,0,1-4.3-2.828L883.473,531.829a1.5,1.5,0,0,0-2.877.337L863.459,648.33a4.5,4.5,0,0,1-4.449,3.844Z" transform="translate(-208.213 -217.637)" fill="#2f2e41"/>
    <path id="Path_9" data-name="Path 9" d="M910.254,525.4a22.88,22.88,0,0,1-13.419-4.36L875,505.273a36.853,36.853,0,0,0-16.184-6.559l-10.507-1.532a6.565,6.565,0,0,1-5.627-6.788l4.187-100.249-2.486-14.291a6.181,6.181,0,0,1,2.593-6.145l19.461-13.315a8.141,8.141,0,0,1,5.23-1.395l.711.056a9.529,9.529,0,0,1,8.5,7.2l.746,2.985,12.948,23.018a85.426,85.426,0,0,1,8.548,21.681L915.4,460.374a90.981,90.981,0,0,1,2.209,13.348l4.065,45.359a4.549,4.549,0,0,1-2.859,4.659,23.028,23.028,0,0,1-8.56,1.657Z" transform="translate(-208.213 -217.637)" fill="#6c63ff"/>
    <path id="Path_10" data-name="Path 10" d="M869.522,489.069a9.377,9.377,0,0,1,9.012-11.2l7.819-19.95,13.283,1.795L888.2,487.729a9.428,9.428,0,0,1-18.676,1.34Z" transform="translate(-208.213 -217.637)" fill="#ffb8b8"/>
    <path id="Path_11" data-name="Path 11" d="M897.918,474.989a7.177,7.177,0,0,1-5.278.233L880.465,471a7.153,7.153,0,0,1-4.589-4.963L864.883,423.9l-14.628-27.978a12.568,12.568,0,0,1,4.638-16.56h0a12.55,12.55,0,0,1,17.324,4.424l19.649,33.693,9.757,22.2a36.207,36.207,0,0,1,2.153,22.393l-1.8,7.96a7.172,7.172,0,0,1-3.507,4.684Q898.2,474.864,897.918,474.989Z" transform="translate(-208.213 -217.637)" fill="#6c63ff"/>
    <path id="Path_12" data-name="Path 12" d="M768.208,558.538H225.867a16.519,16.519,0,0,1-16.5-16.5v-305.8H784.708v305.8A16.519,16.519,0,0,1,768.208,558.538Z" transform="translate(-208.213 -217.637)" fill="#e6e6e6"/>
    <path id="Path_13" data-name="Path 13" d="M746.625,526.955H247.45a8.51,8.51,0,0,1-8.5-8.5V276.321a8.51,8.51,0,0,1,8.5-8.5H746.625a8.51,8.51,0,0,1,8.5,8.5V518.455a8.51,8.51,0,0,1-8.5,8.5Z" transform="translate(-208.213 -217.637)" fill="#fff"/>
    <path id="Path_14" data-name="Path 14" d="M785.862,247.385H208.213V234.137a16.519,16.519,0,0,1,16.5-16.5H769.362a16.519,16.519,0,0,1,16.5,16.5Z" transform="translate(-208.213 -217.637)" fill="#6c63ff"/>
    <path id="Path_15" data-name="Path 15" d="M374.463,315.343h-88.85a8.506,8.506,0,0,0-8.5,8.5v58.4a8.506,8.506,0,0,0,8.5,8.5h88.85a8.512,8.512,0,0,0,8.5-8.5v-58.4a8.512,8.512,0,0,0-8.5-8.5Z" transform="translate(-208.213 -217.637)" fill="#e6e6e6"/>
    <path id="Path_16" data-name="Path 16" d="M541.463,315.343h-88.85a8.506,8.506,0,0,0-8.5,8.5v58.4a8.506,8.506,0,0,0,8.5,8.5h88.85a8.512,8.512,0,0,0,8.5-8.5v-58.4a8.512,8.512,0,0,0-8.5-8.5Z" transform="translate(-208.213 -217.637)" fill="#e6e6e6"/>
    <path id="Path_17" data-name="Path 17" d="M708.463,315.343h-88.85a8.506,8.506,0,0,0-8.5,8.5v58.4a8.506,8.506,0,0,0,8.5,8.5h88.85a8.512,8.512,0,0,0,8.5-8.5v-58.4a8.512,8.512,0,0,0-8.5-8.5Z" transform="translate(-208.213 -217.637)" fill="#e6e6e6"/>
    <path id="Path_18" data-name="Path 18" d="M361.893,418.343h-63.71a4.725,4.725,0,0,0,0,9.45h63.71a4.725,4.725,0,0,0,0-9.45Z" transform="translate(-208.213 -217.637)" fill="#e6e6e6"/>
    <path id="Path_19" data-name="Path 19" d="M361.893,444.163h-63.71a4.722,4.722,0,0,0-1.94,9.03,4.662,4.662,0,0,0,1.94.42h63.71a4.725,4.725,0,1,0,0-9.45Z" transform="translate(-208.213 -217.637)" fill="#e6e6e6"/>
    <path id="Path_20" data-name="Path 20" d="M361.893,469.983h-63.71a4.725,4.725,0,0,0,0,9.45h63.71a4.725,4.725,0,1,0,0-9.45Z" transform="translate(-208.213 -217.637)" fill="#e6e6e6"/>
    <path id="Path_21" data-name="Path 21" d="M528.893,418.343h-63.71a4.725,4.725,0,0,0,0,9.45h63.71a4.725,4.725,0,1,0,0-9.45Z" transform="translate(-208.213 -217.637)" fill="#e6e6e6"/>
    <path id="Path_22" data-name="Path 22" d="M528.893,444.163h-63.71a4.725,4.725,0,0,0,0,9.45h63.71a4.725,4.725,0,1,0,0-9.45Z" transform="translate(-208.213 -217.637)" fill="#e6e6e6"/>
    <path id="Path_23" data-name="Path 23" d="M528.893,469.983h-63.71a4.725,4.725,0,0,0-1.49,9.21,4.6,4.6,0,0,0,1.49.24h63.71a4.725,4.725,0,1,0,0-9.45Z" transform="translate(-208.213 -217.637)" fill="#e6e6e6"/>
    <path id="Path_24" data-name="Path 24" d="M695.893,418.343h-63.71a4.725,4.725,0,0,0,0,9.45h63.71a4.725,4.725,0,1,0,0-9.45Z" transform="translate(-208.213 -217.637)" fill="#e6e6e6"/>
    <path id="Path_25" data-name="Path 25" d="M695.893,444.163h-63.71a4.722,4.722,0,0,0-1.94,9.03,4.662,4.662,0,0,0,1.94.42h63.71a4.725,4.725,0,1,0,0-9.45Z" transform="translate(-208.213 -217.637)" fill="#e6e6e6"/>
    <path id="Path_26" data-name="Path 26" d="M695.893,469.983h-63.71a4.725,4.725,0,0,0,0,9.45h63.71a4.725,4.725,0,1,0,0-9.45Z" transform="translate(-208.213 -217.637)" fill="#e6e6e6"/>
    <circle id="Ellipse_2" data-name="Ellipse 2" cx="4.283" cy="4.283" r="4.283" transform="translate(14.642 10.765)" fill="#fff"/>
    <circle id="Ellipse_3" data-name="Ellipse 3" cx="4.283" cy="4.283" r="4.283" transform="translate(30.901 10.765)" fill="#fff"/>
    <circle id="Ellipse_4" data-name="Ellipse 4" cx="4.283" cy="4.283" r="4.283" transform="translate(47.16 10.765)" fill="#fff"/>
    <path id="Path_27" data-name="Path 27" d="M343.763,418.343h-45.58a4.725,4.725,0,0,0,0,9.45h44.63a5.379,5.379,0,0,0,.95-9.45Z" transform="translate(-208.213 -217.637)" fill="#6c63ff"/>
    <path id="Path_28" data-name="Path 28" d="M322.713,444.163h-24.53a4.722,4.722,0,0,0-1.94,9.03h22.53a5.382,5.382,0,0,0,5.38-5.38A5.27,5.27,0,0,0,322.713,444.163Z" transform="translate(-208.213 -217.637)" fill="#6c63ff"/>
    <path id="Path_29" data-name="Path 29" d="M357.133,469.983h-58.95a4.725,4.725,0,0,0,0,9.45h59.33a5.368,5.368,0,0,0-.38-9.45Z" transform="translate(-208.213 -217.637)" fill="#6c63ff"/>
    <path id="Path_30" data-name="Path 30" d="M647.873,418.343h-15.69a4.725,4.725,0,0,0-2.31,8.85h13.9a5.382,5.382,0,0,0,5.38-5.38A5.3,5.3,0,0,0,647.873,418.343Z" transform="translate(-208.213 -217.637)" fill="#6c63ff"/>
    <path id="Path_31" data-name="Path 31" d="M659.713,444.163h-27.53a4.722,4.722,0,0,0-1.94,9.03h25.53a5.382,5.382,0,0,0,5.38-5.38A5.27,5.27,0,0,0,659.713,444.163Z" transform="translate(-208.213 -217.637)" fill="#6c63ff"/>
    <path id="Path_32" data-name="Path 32" d="M679.133,469.983h-46.95a4.725,4.725,0,0,0,0,9.45h47.33a5.368,5.368,0,0,0-.38-9.45Z" transform="translate(-208.213 -217.637)" fill="#6c63ff"/>
    <path id="Path_33" data-name="Path 33" d="M524.463,444.163h-59.28a4.725,4.725,0,0,0,0,9.45h59.01a5.368,5.368,0,0,0,.27-9.45Z" transform="translate(-208.213 -217.637)" fill="#6c63ff"/>
    <path id="Path_34" data-name="Path 34" d="M471.543,469.983h-6.36a4.725,4.725,0,0,0-1.49,9.21h4.08a5.382,5.382,0,0,0,5.38-5.38,5.314,5.314,0,0,0-1.61-3.83Z" transform="translate(-208.213 -217.637)" fill="#6c63ff"/>
    <path id="Path_35" data-name="Path 35" d="M499.763,418.343h-34.58a4.725,4.725,0,0,0,0,9.45h33.63a5.379,5.379,0,0,0,.95-9.45Z" transform="translate(-208.213 -217.637)" fill="#6c63ff"/>
    <path id="Path_36" data-name="Path 36" d="M990.787,682.363h-217a1,1,0,0,1,0-2h217a1,1,0,0,1,0,2Z" transform="translate(-208.213 -217.637)" fill="#ccc"/>
  </g>
</svg>
