<svg xmlns="http://www.w3.org/2000/svg" width="747.732" height="649.411" viewBox="0 0 747.732 649.411">
  <g id="Group_1" data-name="Group 1" transform="translate(0.058 0)">
    <path id="Path_1" data-name="Path 1" d="M973.837,440.8c0,144.48-127.12,266.27-300.58,303.66a527.713,527.713,0,0,1-85.57,11.18c-1.4.07-2.8.14-4.21.19q-11.235.465-22.64.47-19.83,0-39.19-1.41-10.74-.765-21.3-1.95c-68.47-7.68-131.479-28.19-184.7-58.24q-9.975-5.625-19.48-11.7a388.079,388.079,0,0,1-33.56-23.96c-71.09-56.66-11.82-177.6,25.23-253.74,100-205.5,44.91-280,273-280S973.837,266.547,973.837,440.8Z" transform="translate(-226.163 -125.297)" fill="#f2f2f2"/>
    <path id="Path_2" data-name="Path 2" d="M810.375,255.365c-70.892-1.271-70.881-106.625,0-107.886C881.268,148.75,881.257,254.1,810.375,255.365Z" transform="translate(-226.163 -125.297)" fill="#fff"/>
    <path id="Path_3" data-name="Path 3" d="M676.308,412.365c-70.892-1.271-70.881-106.625,0-107.886C747.2,305.75,747.189,411.1,676.308,412.365Z" transform="translate(-226.163 -125.297)" fill="#fff"/>
    <path id="Path_4" data-name="Path 4" d="M816.156,571.789c-70.892-1.271-70.881-106.625,0-107.886C887.048,465.175,887.037,570.529,816.156,571.789Z" transform="translate(-226.163 -125.297)" fill="#fff"/>
    <path id="Path_5" data-name="Path 5" d="M810.375,255.365c-70.892-1.271-70.881-106.625,0-107.886C881.268,148.75,881.257,254.1,810.375,255.365Zm0-104.616c-66.6,1.194-66.585,100.162,0,101.347,66.594-1.2,66.584-100.163,0-101.348Z" transform="translate(-226.163 -125.297)" fill="#e6e6e6"/>
    <path id="Path_6" data-name="Path 6" d="M500.1,752.187a8.36,8.36,0,0,1-.33-1.56l-20.59-117.4a8.516,8.516,0,0,0-.14-.9,10.607,10.607,0,0,0-8.87-8.38l-117.41.51a10.528,10.528,0,0,0-11.04,5.83q-2.865,5.97-5.61,12.11-11.115,24.735-20.46,52.3c53.22,30.05,116.23,50.56,184.7,58.24Z" transform="translate(-226.163 -125.297)" fill="#2f2e41"/>
    <path id="Path_7" data-name="Path 7" d="M614.709,438.026a24.763,24.763,0,0,0-.563,3.858l-101.055,58.3-24.563-14.141-26.185,34.281,41.051,29.259a18.82,18.82,0,0,0,22.579-.55l104.2-82.208a24.694,24.694,0,1,0-15.469-28.8Z" transform="translate(-226.163 -125.297)" fill="#ffb8b8"/>
    <path id="Path_8" data-name="Path 8" d="M511.707,494.357a10.607,10.607,0,0,0-5.21-7.12l-46.37-25.93a29.4,29.4,0,1,0-36.05,46.45l36.97,38.39a10.591,10.591,0,0,0,16.01-.87l7.2-9.34,2.46-3.18,23-29.81a10.367,10.367,0,0,0,1.81-3.66,10.521,10.521,0,0,0,.18-4.93Z" transform="translate(-226.163 -125.297)" fill="#6c63ff"/>
    <circle id="Ellipse_1" data-name="Ellipse 1" cx="57.778" cy="57.778" r="57.778" transform="translate(95.84 249.139) rotate(-45)" fill="#ffb8b8"/>
    <path id="Path_9" data-name="Path 9" d="M476.767,593.127c2.32-3.47,17.07-26.89,11.49-54.34a60.661,60.661,0,0,0-1.54-6.03,67.358,67.358,0,0,0-12.37-22.61c.07-1.84.05-3.65-.06-5.45v-.01a51.987,51.987,0,0,0-48-48.46l-64.62-4.91a51.5,51.5,0,0,0-44.08,18.76,55.244,55.244,0,0,0-3.41,4.6.01.01,0,0,0-.007,0,.01.01,0,0,0,0,.007,51.417,51.417,0,0,0-6.66,42.23l.55,2.42,6.89,30.21,11.52,50.55,9.64,42.3,1.02,4.46a10.61,10.61,0,0,0,10.32,8.23,10.064,10.064,0,0,0,1.72-.14l125.04-20.5a10.462,10.462,0,0,0,4.83-2.12,10.9,10.9,0,0,0,2.19-2.35,10.466,10.466,0,0,0,1.62-8.17Z" transform="translate(-226.163 -125.297)" fill="#6c63ff"/>
    <path id="Path_10" data-name="Path 10" d="M230.684,763.748a25.271,25.271,0,0,1,10.045-37.426l71.194-218.888,41.258,19.577-77.9,213.128a25.409,25.409,0,0,1-44.6,23.609Z" transform="translate(-226.163 -125.297)" fill="#ffb8b8"/>
    <path id="Path_11" data-name="Path 11" d="M352.7,455.727a31.509,31.509,0,0,0-38.52,18.95.01.01,0,0,0-.01.01c-.26.67-.5,1.37-.71,2.07l-6.03,12.79-18.22,38.65a11.32,11.32,0,0,0,6.97,15.68l3.55,1.07,15.22,4.6,27.01,8.16,9,2.72a11.333,11.333,0,0,0,14.49-9.2l8.32-56.44a31.461,31.461,0,0,0-21.07-39.06Z" transform="translate(-226.163 -125.297)" fill="#6c63ff"/>
    <path id="Path_12" data-name="Path 12" d="M456.767,353.425c-20.588,18.01-52.194,22.192-76.758,10.156C391.043,376.671,412,441.288,412,441.288s-59.169-6.219-67.529-8.006C295.094,422.724,313.042,294.85,365.654,295.5c8.911.109,16.7,1.187,22.632,7.838,3.937-11.035,16.455-17.535,28.14-16.694S438.68,294.5,446.2,303.488a64.473,64.473,0,0,1,13.635,52.844Z" transform="translate(-226.163 -125.297)" fill="#2f2e41"/>
    <path id="Path_13" data-name="Path 13" d="M676.308,412.365c-70.892-1.271-70.881-106.625,0-107.886C747.2,305.75,747.189,411.1,676.308,412.365Zm0-104.616c-66.6,1.194-66.585,100.162,0,101.347,66.594-1.2,66.583-100.163,0-101.348Z" transform="translate(-226.163 -125.297)" fill="#e6e6e6"/>
    <path id="Path_14" data-name="Path 14" d="M816.156,571.789c-70.892-1.271-70.881-106.625,0-107.886C887.048,465.175,887.037,570.529,816.156,571.789Zm0-104.616c-66.6,1.194-66.585,100.162,0,101.347C882.751,567.326,882.741,468.358,816.156,467.173Z" transform="translate(-226.163 -125.297)" fill="#e6e6e6"/>
    <path id="Path_15" data-name="Path 15" d="M821.9,173.77c-13.3.382-39.16-4.371-39.173,16.132.381,13.3-4.372,39.159,16.131,39.172,13.3-.381,39.159,4.372,39.172-16.131C837.646,199.645,842.4,173.784,821.9,173.77Z" transform="translate(-226.163 -125.297)" fill="#3f3d56"/>
    <path id="Path_16" data-name="Path 16" d="M825.354,189.9c-4.475.056-4.46-6.974.015-6.9C829.844,182.947,829.828,189.976,825.354,189.9Z" transform="translate(-226.163 -125.297)" fill="#fff"/>
    <path id="Path_17" data-name="Path 17" d="M810.376,192.2c11.96-.176,11.96,18.613,0,18.436C798.416,210.813,798.416,192.029,810.376,192.2Zm0-4.608c-17.937-.262-17.94,27.917,0,27.652C828.316,215.51,828.314,187.332,810.376,187.6Z" transform="translate(-226.163 -125.297)" fill="#fff"/>
    <path id="Path_18" data-name="Path 18" d="M718.775,526.942a1.631,1.631,0,0,1-1.231-2.753l5.442-5.75a.938.938,0,0,0-.036-1.324l-5.782-5.472a1.676,1.676,0,0,1-.065-2.37h0a1.68,1.68,0,0,1,2.362-.073l7.778,7.268a1.585,1.585,0,0,1,.062,2.255l-7.4,7.717A1.628,1.628,0,0,1,718.775,526.942Z" transform="translate(-226.163 -125.297)" fill="#ccc"/>
    <path id="Path_19" data-name="Path 19" d="M712.832,518.573a1,1,0,0,1-.649.263l-18.135.5a1,1,0,0,1-.055-2l18.135-.5a1,1,0,0,1,.7,1.735Z" transform="translate(-226.163 -125.297)" fill="#ccc"/>
    <path id="Path_20" data-name="Path 20" d="M578.775,367.517a1.631,1.631,0,0,1-1.231-2.753l5.442-5.75a.938.938,0,0,0-.036-1.324l-5.782-5.472a1.676,1.676,0,0,1-.065-2.37h0a1.68,1.68,0,0,1,2.362-.073l7.778,7.268a1.585,1.585,0,0,1,.062,2.255l-7.4,7.717A1.628,1.628,0,0,1,578.775,367.517Z" transform="translate(-226.163 -125.297)" fill="#ccc"/>
    <path id="Path_21" data-name="Path 21" d="M572.832,359.148a1,1,0,0,1-.65.263l-18.135.5a1,1,0,0,1-.055-2l18.135-.5a1,1,0,0,1,.7,1.736Z" transform="translate(-226.163 -125.297)" fill="#ccc"/>
    <path id="Path_22" data-name="Path 22" d="M712.775,210.517a1.631,1.631,0,0,1-1.231-2.753l5.442-5.75a.938.938,0,0,0-.036-1.324l-5.782-5.472a1.676,1.676,0,0,1-.065-2.37h0a1.68,1.68,0,0,1,2.362-.073l7.778,7.268a1.585,1.585,0,0,1,.062,2.255l-7.4,7.717A1.628,1.628,0,0,1,712.775,210.517Z" transform="translate(-226.163 -125.297)" fill="#ccc"/>
    <path id="Path_23" data-name="Path 23" d="M706.832,202.148a1,1,0,0,1-.65.263l-18.135.5a1,1,0,1,1-.055-2l18.135-.5a1,1,0,0,1,.7,1.735Z" transform="translate(-226.163 -125.297)" fill="#ccc"/>
    <path id="Path_24" data-name="Path 24" d="M694.207,720.177c-4.69,9.74-12.33,17.62-20.95,24.28a527.719,527.719,0,0,1-85.57,11.18c-1.4.07-2.8.14-4.21.19q-11.235.465-22.64.47-19.83,0-39.19-1.41a31.787,31.787,0,0,1-.2-8.98c1.43-11.69,10.3-22.43,21.81-24.91s24.63,4.39,28.12,15.63c1.93-21.68,4.14-44.26,15.67-62.72,10.43-16.71,28.5-28.67,48.09-30.81a60.541,60.541,0,0,1,33.47,6.13q1.425.72,2.82,1.5a55.847,55.847,0,0,1,16.13,13.77C699.777,679.957,702.767,702.437,694.207,720.177Z" transform="translate(-226.163 -125.297)" fill="#fff"/>
    <path id="Path_25" data-name="Path 25" d="M671.427,650.727a1.522,1.522,0,0,1-.62,1.37,316.877,316.877,0,0,0-83.12,103.54c-1.4.07-2.8.14-4.21.19q2.67-5.415,5.54-10.72a322.165,322.165,0,0,1,34.91-51.67,318.086,318.086,0,0,1,44.26-43.95,1.918,1.918,0,0,1,.42-.26,2.05,2.05,0,0,1,2.82,1.5Z" transform="translate(-226.163 -125.297)" fill="#f2f2f2"/>
    <path id="Path_26" data-name="Path 26" d="M845.444,504.237s-4.58,5.13-5.46,5.46c-2.42,26.33-18.86,32.31-32.06,32.31-9.49,0-17.31-3.09-17.05-3.94,14.08.33,15.28-5.45,15.28-5.45-8.18-1.21-9.82-6.55-9.82-6.55a3.37,3.37,0,0,0,4.36-1.09c-8.83-2.3-7.63-10.92-7.63-10.92a11.368,11.368,0,0,0,5.34,2.08c-.98-1.2-9.24-11.1-4.27-16.23.29.78,8.89,12.49,23.26,11.64a11.552,11.552,0,0,1,11.24-13.86c7.64,0,9.28,4.37,9.28,4.37l5.46-3.28c-.11,0-.66,5.46-3.39,6.55Z" transform="translate(-226.163 -125.297)" fill="#3f3d56"/>
    <path id="Path_27" data-name="Path 27" d="M706.031,358.6a29.976,29.976,0,0,1-25.285,29.611l0-20.941h6.98l1.33-8.67h-8.31c-.28-7.22-.56-11.27,8.66-10.3v-7.37c-13.81-3.04-19.57,3.96-18.02,17.67h-7.61v8.67h7.61V388.2c-35.82-5.51-31.61-59.7,4.67-59.56a29.966,29.966,0,0,1,29.97,29.966Z" transform="translate(-226.163 -125.297)" fill="#3f3d56" fill-rule="evenodd"/>
  </g>
</svg>
