<svg id="Group_11" data-name="Group 11" xmlns="http://www.w3.org/2000/svg" xmlns:xlink="http://www.w3.org/1999/xlink" width="990" height="758.26" viewBox="0 0 990 758.26">
  <defs>
    <linearGradient id="linear-gradient" y1="0.5" x2="1" y2="0.5" gradientUnits="objectBoundingBox">
      <stop offset="0" stop-color="gray" stop-opacity="0.251"/>
      <stop offset="0.54" stop-color="gray" stop-opacity="0.122"/>
      <stop offset="1" stop-color="gray" stop-opacity="0.102"/>
    </linearGradient>
    <linearGradient id="linear-gradient-2" x1="0" y1="0.5" x2="1" y2="0.5" xlink:href="#linear-gradient"/>
    <linearGradient id="linear-gradient-4" x1="0" y1="0.5" x2="1" y2="0.5" xlink:href="#linear-gradient"/>
    <linearGradient id="linear-gradient-5" x1="0" y1="0.5" x2="1" y2="0.5" xlink:href="#linear-gradient"/>
    <linearGradient id="linear-gradient-7" x1="0" y1="0.5" x2="1" y2="0.5" xlink:href="#linear-gradient"/>
    <linearGradient id="linear-gradient-8" x1="0" y1="0.5" x2="1" y2="0.5" xlink:href="#linear-gradient"/>
    <linearGradient id="linear-gradient-13" x1="0" y1="0.5" x2="1" y2="0.5" xlink:href="#linear-gradient"/>
    <linearGradient id="linear-gradient-14" x1="0" y1="0.501" x2="1" y2="0.501" xlink:href="#linear-gradient"/>
    <linearGradient id="linear-gradient-15" x1="0" y1="0.5" x2="1" y2="0.5" xlink:href="#linear-gradient"/>
    <linearGradient id="linear-gradient-17" x1="0" y1="0.5" x2="1" y2="0.5" xlink:href="#linear-gradient"/>
    <linearGradient id="linear-gradient-18" x1="0" y1="0.5" x2="1" y2="0.5" xlink:href="#linear-gradient"/>
    <linearGradient id="linear-gradient-19" x1="0" y1="0.5" x2="0.999" y2="0.5" xlink:href="#linear-gradient"/>
    <linearGradient id="linear-gradient-20" x1="0" y1="0.5" x2="0.999" y2="0.5" xlink:href="#linear-gradient"/>
    <linearGradient id="linear-gradient-21" x1="0.5" y1="1" x2="0.5" y2="0" xlink:href="#linear-gradient"/>
    <linearGradient id="linear-gradient-22" x1="0.5" y1="1" x2="0.5" y2="0" xlink:href="#linear-gradient"/>
  </defs>
  <path id="Path_1" data-name="Path 1" d="M923,738.89H852v-40h71Zm-68-3h65v-34H855Z" transform="translate(-105 -70.89)" fill="#6c63ff" opacity="0.2"/>
  <path id="Path_2" data-name="Path 2" d="M994,736.89H923v-40h71Zm-68-3h65v-34H926Z" transform="translate(-105 -70.89)" fill="#6c63ff" opacity="0.2"/>
  <path id="Path_3" data-name="Path 3" d="M1065,736.89H994v-40h71Zm-68-3h65v-34H997Z" transform="translate(-105 -70.89)" fill="#6c63ff" opacity="0.2"/>
  <path id="Path_4" data-name="Path 4" d="M1065,696.89H994v-40h71Zm-68-3h65v-34H997Z" transform="translate(-105 -70.89)" fill="#6c63ff" opacity="0.2"/>
  <path id="Path_5" data-name="Path 5" d="M994,696.89H923v-40h71Zm-68-3h65v-34H926Z" transform="translate(-105 -70.89)" fill="#6c63ff" opacity="0.2"/>
  <path id="Path_6" data-name="Path 6" d="M194,736.89H123v-40h71Zm-68-3h65v-34H126Z" transform="translate(-105 -70.89)" fill="#6c63ff" opacity="0.2"/>
  <path id="Path_7" data-name="Path 7" d="M265,736.89H194v-40h71Zm-68-3h65v-34H197Z" transform="translate(-105 -70.89)" fill="#6c63ff" opacity="0.2"/>
  <path id="Path_8" data-name="Path 8" d="M336,736.89H265v-40h71Zm-68-3h65v-34H268Z" transform="translate(-105 -70.89)" fill="#6c63ff" opacity="0.2"/>
  <path id="Path_9" data-name="Path 9" d="M407,738.89H336v-40h71Zm-68-3h65v-34H339Z" transform="translate(-105 -70.89)" fill="#6c63ff" opacity="0.2"/>
  <path id="Path_10" data-name="Path 10" d="M336,696.89H265v-40h71Zm-68-3h65v-34H268Z" transform="translate(-105 -70.89)" fill="#6c63ff" opacity="0.2"/>
  <path id="Path_11" data-name="Path 11" d="M265,696.89H194v-40h71Zm-68-3h65v-34H197Z" transform="translate(-105 -70.89)" fill="#6c63ff" opacity="0.2"/>
  <path id="Path_12" data-name="Path 12" d="M995.28,613.25s-13.14-44.63,2.46-77.48a70.49,70.49,0,0,0,5.7-44.22,118.548,118.548,0,0,0-6.26-20.76" transform="translate(-105 -70.89)" fill="none" stroke="#535461" stroke-miterlimit="10" stroke-width="2"/>
  <path id="Path_13" data-name="Path 13" d="M1006.9,450c0,5.47-9.9,21.33-9.9,21.33s-9.9-15.86-9.9-21.33a9.9,9.9,0,1,1,19.81,0Z" transform="translate(-105 -70.89)" fill="#6c63ff"/>
  <path id="Path_14" data-name="Path 14" d="M1023.27,480.33c-3,4.59-19.91,12.52-19.91,12.52s.31-18.7,3.28-23.29a9.9,9.9,0,1,1,16.63,10.76Z" transform="translate(-105 -70.89)" fill="#6c63ff"/>
  <path id="Path_15" data-name="Path 15" d="M1022.55,532.11c-4.88,2.46-23.5.76-23.5.76s9.7-16,14.59-18.45a9.906,9.906,0,0,1,8.92,17.69Z" transform="translate(-105 -70.89)" fill="#6c63ff"/>
  <path id="Path_16" data-name="Path 16" d="M1013.19,571.16c-4.4,3.25-23,4.72-23,4.72s6.86-17.39,11.26-20.65a9.9,9.9,0,1,1,11.78,15.92Z" transform="translate(-105 -70.89)" fill="#6c63ff"/>
  <path id="Path_17" data-name="Path 17" d="M982.57,493.92c3.92,3.81,22.2,7.76,22.2,7.76s-4.48-18.16-8.4-22a9.9,9.9,0,0,0-13.8,14.21Z" transform="translate(-105 -70.89)" fill="#6c63ff"/>
  <path id="Path_18" data-name="Path 18" d="M972.2,539.72c4.88,2.46,23.5.76,23.5.76s-9.7-16-14.59-18.45a9.906,9.906,0,1,0-8.92,17.69Z" transform="translate(-105 -70.89)" fill="#6c63ff"/>
  <path id="Path_19" data-name="Path 19" d="M968.23,585.63c4.4,3.25,23,4.72,23,4.72S984.41,573,980,569.71a9.9,9.9,0,0,0-11.78,15.92Z" transform="translate(-105 -70.89)" fill="#6c63ff"/>
  <path id="Path_20" data-name="Path 20" d="M1006.9,450c0,5.47-9.9,21.33-9.9,21.33s-9.9-15.86-9.9-21.33a9.9,9.9,0,1,1,19.81,0Z" transform="translate(-105 -70.89)" opacity="0.25"/>
  <path id="Path_21" data-name="Path 21" d="M1023.27,480.33c-3,4.59-19.91,12.52-19.91,12.52s.31-18.7,3.28-23.29a9.9,9.9,0,1,1,16.63,10.76Z" transform="translate(-105 -70.89)" opacity="0.25"/>
  <path id="Path_22" data-name="Path 22" d="M1022.55,532.11c-4.88,2.46-23.5.76-23.5.76s9.7-16,14.59-18.45a9.906,9.906,0,0,1,8.92,17.69Z" transform="translate(-105 -70.89)" opacity="0.25"/>
  <path id="Path_23" data-name="Path 23" d="M1013.19,571.16c-4.4,3.25-23,4.72-23,4.72s6.86-17.39,11.26-20.65a9.9,9.9,0,1,1,11.78,15.92Z" transform="translate(-105 -70.89)" opacity="0.25"/>
  <path id="Path_24" data-name="Path 24" d="M982.57,493.92c3.92,3.81,22.2,7.76,22.2,7.76s-4.48-18.16-8.4-22a9.9,9.9,0,0,0-13.8,14.21Z" transform="translate(-105 -70.89)" opacity="0.25"/>
  <path id="Path_25" data-name="Path 25" d="M972.2,539.72c4.88,2.46,23.5.76,23.5.76s-9.7-16-14.59-18.45a9.906,9.906,0,1,0-8.92,17.69Z" transform="translate(-105 -70.89)" opacity="0.25"/>
  <path id="Path_26" data-name="Path 26" d="M968.23,585.63c4.4,3.25,23,4.72,23,4.72S984.41,573,980,569.71a9.9,9.9,0,0,0-11.78,15.92Z" transform="translate(-105 -70.89)" opacity="0.25"/>
  <path id="Path_27" data-name="Path 27" d="M273.8,613.59S260.46,568.3,276.3,535a71.54,71.54,0,0,0,5.79-44.88A120.311,120.311,0,0,0,275.73,469" transform="translate(-105 -70.89)" fill="none" stroke="#535461" stroke-miterlimit="10" stroke-width="2"/>
  <path id="Path_28" data-name="Path 28" d="M285.59,448c0,5.55-10.05,21.65-10.05,21.65S265.48,453.5,265.48,448a10.05,10.05,0,0,1,20.1,0Z" transform="translate(-105 -70.89)" fill="#6c63ff"/>
  <path id="Path_29" data-name="Path 29" d="M302.2,478.7c-3,4.66-20.2,12.71-20.2,12.71s.31-19,3.33-23.63A10.049,10.049,0,1,1,302.2,478.7Z" transform="translate(-105 -70.89)" fill="#6c63ff"/>
  <path id="Path_30" data-name="Path 30" d="M301.47,531.24c-5,2.5-23.85.77-23.85.77s9.85-16.22,14.8-18.72a10.051,10.051,0,0,1,9.05,17.95Z" transform="translate(-105 -70.89)" fill="#6c63ff"/>
  <path id="Path_31" data-name="Path 31" d="M292,570.87c-4.46,3.3-23.38,4.79-23.38,4.79s7-17.65,11.43-21a10.064,10.064,0,1,1,12,16.16Z" transform="translate(-105 -70.89)" fill="#6c63ff"/>
  <path id="Path_32" data-name="Path 32" d="M260.89,492.48c4,3.87,22.53,7.87,22.53,7.87s-4.54-18.42-8.52-22.29a10.05,10.05,0,1,0-14,14.421Z" transform="translate(-105 -70.89)" fill="#6c63ff"/>
  <path id="Path_33" data-name="Path 33" d="M250.37,539c5,2.5,23.85.77,23.85.77s-9.85-16.22-14.8-18.72A10.051,10.051,0,1,0,250.37,539Z" transform="translate(-105 -70.89)" fill="#6c63ff"/>
  <path id="Path_34" data-name="Path 34" d="M246.34,585.56c4.46,3.3,23.38,4.79,23.38,4.79s-7-17.65-11.43-21a10.064,10.064,0,0,0-12,16.16Z" transform="translate(-105 -70.89)" fill="#6c63ff"/>
  <path id="Path_35" data-name="Path 35" d="M285.59,448c0,5.55-10.05,21.65-10.05,21.65S265.48,453.5,265.48,448a10.05,10.05,0,0,1,20.1,0Z" transform="translate(-105 -70.89)" fill="#fff" opacity="0.5"/>
  <path id="Path_36" data-name="Path 36" d="M302.2,478.7c-3,4.66-20.2,12.71-20.2,12.71s.31-19,3.33-23.63A10.049,10.049,0,1,1,302.2,478.7Z" transform="translate(-105 -70.89)" fill="#fff" opacity="0.5"/>
  <path id="Path_37" data-name="Path 37" d="M301.47,531.24c-5,2.5-23.85.77-23.85.77s9.85-16.22,14.8-18.72a10.051,10.051,0,0,1,9.05,17.95Z" transform="translate(-105 -70.89)" fill="#fff" opacity="0.5"/>
  <path id="Path_38" data-name="Path 38" d="M292,570.87c-4.46,3.3-23.38,4.79-23.38,4.79s7-17.65,11.43-21a10.064,10.064,0,1,1,12,16.16Z" transform="translate(-105 -70.89)" fill="#fff" opacity="0.5"/>
  <path id="Path_39" data-name="Path 39" d="M260.89,492.48c4,3.87,22.53,7.87,22.53,7.87s-4.54-18.42-8.52-22.29a10.05,10.05,0,1,0-14,14.421Z" transform="translate(-105 -70.89)" fill="#fff" opacity="0.5"/>
  <path id="Path_40" data-name="Path 40" d="M250.37,539c5,2.5,23.85.77,23.85.77s-9.85-16.22-14.8-18.72A10.051,10.051,0,1,0,250.37,539Z" transform="translate(-105 -70.89)" fill="#fff" opacity="0.5"/>
  <path id="Path_41" data-name="Path 41" d="M246.34,585.56c4.46,3.3,23.38,4.79,23.38,4.79s-7-17.65-11.43-21a10.064,10.064,0,0,0-12,16.16Z" transform="translate(-105 -70.89)" fill="#fff" opacity="0.5"/>
  <path id="Path_42" data-name="Path 42" d="M197.69,612.47S187.53,578,199.6,552.55a54.52,54.52,0,0,0,4.41-34.2,91.69,91.69,0,0,0-4.84-16.05" transform="translate(-105 -70.89)" fill="none" stroke="#535461" stroke-miterlimit="10" stroke-width="2"/>
  <path id="Path_43" data-name="Path 43" d="M206.68,486.24c0,4.23-7.66,16.5-7.66,16.5s-7.66-12.27-7.66-16.5a7.66,7.66,0,0,1,15.32,0Z" transform="translate(-105 -70.89)" fill="#6c63ff"/>
  <path id="Path_44" data-name="Path 44" d="M219.34,509.67c-2.3,3.55-15.4,9.69-15.4,9.69s.24-14.46,2.54-18a7.661,7.661,0,1,1,12.86,8.33Z" transform="translate(-105 -70.89)" fill="#6c63ff"/>
  <path id="Path_45" data-name="Path 45" d="M218.79,549.71c-3.78,1.9-18.18.59-18.18.59s7.5-12.36,11.28-14.27a7.661,7.661,0,1,1,6.9,13.68Z" transform="translate(-105 -70.89)" fill="#6c63ff"/>
  <path id="Path_46" data-name="Path 46" d="M211.55,579.92c-3.4,2.52-17.82,3.65-17.82,3.65s5.31-13.45,8.71-16a7.661,7.661,0,1,1,9.11,12.32Z" transform="translate(-105 -70.89)" fill="#6c63ff"/>
  <path id="Path_47" data-name="Path 47" d="M187.86,520.18c3,2.95,17.17,6,17.17,6s-3.46-14-6.5-17a7.662,7.662,0,0,0-10.67,11Z" transform="translate(-105 -70.89)" fill="#6c63ff"/>
  <path id="Path_48" data-name="Path 48" d="M179.84,555.61c3.78,1.9,18.18.59,18.18.59s-7.5-12.36-11.28-14.27a7.661,7.661,0,0,0-6.9,13.68Z" transform="translate(-105 -70.89)" fill="#6c63ff"/>
  <path id="Path_49" data-name="Path 49" d="M176.77,591.11c3.4,2.52,17.82,3.65,17.82,3.65s-5.31-13.45-8.71-16a7.661,7.661,0,1,0-9.11,12.32Z" transform="translate(-105 -70.89)" fill="#6c63ff"/>
  <path id="Path_50" data-name="Path 50" d="M206.68,486.24c0,4.23-7.66,16.5-7.66,16.5s-7.66-12.27-7.66-16.5a7.66,7.66,0,0,1,15.32,0Z" transform="translate(-105 -70.89)" opacity="0.25"/>
  <path id="Path_51" data-name="Path 51" d="M219.34,509.67c-2.3,3.55-15.4,9.69-15.4,9.69s.24-14.46,2.54-18a7.661,7.661,0,1,1,12.86,8.33Z" transform="translate(-105 -70.89)" opacity="0.25"/>
  <path id="Path_52" data-name="Path 52" d="M218.79,549.71c-3.78,1.9-18.18.59-18.18.59s7.5-12.36,11.28-14.27a7.661,7.661,0,1,1,6.9,13.68Z" transform="translate(-105 -70.89)" opacity="0.25"/>
  <path id="Path_53" data-name="Path 53" d="M211.55,579.92c-3.4,2.52-17.82,3.65-17.82,3.65s5.31-13.45,8.71-16a7.661,7.661,0,1,1,9.11,12.32Z" transform="translate(-105 -70.89)" opacity="0.25"/>
  <path id="Path_54" data-name="Path 54" d="M187.86,520.18c3,2.95,17.17,6,17.17,6s-3.46-14-6.5-17a7.662,7.662,0,0,0-10.67,11Z" transform="translate(-105 -70.89)" opacity="0.25"/>
  <path id="Path_55" data-name="Path 55" d="M179.84,555.61c3.78,1.9,18.18.59,18.18.59s-7.5-12.36-11.28-14.27a7.661,7.661,0,0,0-6.9,13.68Z" transform="translate(-105 -70.89)" opacity="0.25"/>
  <path id="Path_56" data-name="Path 56" d="M176.77,591.11c3.4,2.52,17.82,3.65,17.82,3.65s-5.31-13.45-8.71-16a7.661,7.661,0,1,0-9.11,12.32Z" transform="translate(-105 -70.89)" opacity="0.25"/>
  <g id="Group_1" data-name="Group 1" opacity="0.7">
    <rect id="Rectangle_1" data-name="Rectangle 1" width="990" height="505" transform="translate(0 80)" fill="#6c63ff" opacity="0.6"/>
    <path id="Path_57" data-name="Path 57" d="M105,150.89v506h990v-506Zm44,44H578v187H149Zm0,231H578v187H149Zm902,187H622v-187h429Zm0-231H622v-187h429Z" transform="translate(-105 -70.89)" opacity="0.25"/>
  </g>
  <g id="Group_8" data-name="Group 8" opacity="0.7">
    <path id="Path_58" data-name="Path 58" d="M468.11,677.77s-86.64-31.68-98.5,12.91l33.23,84.47,3.56,54h72.39V783.36s-10.68-45.76,16.62-73.91Z" transform="translate(-105 -70.89)" fill="url(#linear-gradient)"/>
    <g id="Group_2" data-name="Group 2" opacity="0.1">
      <path id="Path_59" data-name="Path 59" d="M482.62,426.39c-3.68-1.22-8.11-2.31-11.11.12-1.74,1.41-2.49,3.68-3.84,5.46-4.49,5.89-13.54,4.79-20.69,6.9-10.51,3.1-17,13.51-20.72,23.71-16.46,45,1.89,96.47-12.44,142.17-4.22,13.45-11.12,28.38-4.3,40.75,2.27,4.13,6,7.57,7.1,12.13,1.54,6.19-1.43,14.31,3.76,18.08,1.62,1.17,3.67,1.54,5.61,2,11.68,3.08,20.53,12.17,29.43,20.25s19.6,15.9,31.67,15.37a51.568,51.568,0,0,0,11.48-2.28l59.9-16.68c6-1.67,12.52-3.69,16-8.81,2.13-3.13,2.8-7,3.34-10.72a282.41,282.41,0,0,0,2.93-42.93c0-4.74-.22-9.59-2-14-2-5.09-6-9.16-8.91-13.81-5.62-9-7.13-19.81-8.52-30.28-2.21-16.67-4.42-33.67-1.36-50.21,1.31-7.1,3.57-14,5.07-21.05a99.859,99.859,0,0,0,1.14-34.93c-1.4-9.65-4.4-19.44-11-26.7a27.91,27.91,0,0,0-16.6-9c-8.1-1-12.13,3.66-19.35,5.4C508.53,440,492.89,429.78,482.62,426.39Z" transform="translate(-105 -70.89)" fill="url(#linear-gradient-2)"/>
    </g>
    <path id="Path_60" data-name="Path 60" d="M482.62,424c-3.68-1.22-8.11-2.31-11.11.12-1.74,1.41-2.49,3.68-3.84,5.46-4.49,5.89-13.54,4.79-20.69,6.9-10.51,3.1-17,13.51-20.72,23.71-16.46,45,1.89,96.47-12.44,142.17-4.22,13.45-11.12,28.38-4.3,40.75,2.27,4.13,6,7.57,7.1,12.13,1.54,6.19-1.43,14.31,3.76,18.08,1.62,1.17,3.67,1.54,5.61,2,11.68,3.08,20.53,12.17,29.43,20.25S475,711.56,487.09,711a51.572,51.572,0,0,0,11.48-2.28l59.9-16.68c6-1.67,12.52-3.69,16-8.81,2.13-3.13,2.8-7,3.34-10.72a282.41,282.41,0,0,0,2.93-42.93c0-4.74-.22-9.59-2-14-2-5.09-6-9.16-8.91-13.81-5.62-9-7.13-19.81-8.52-30.28-2.21-16.67-4.42-33.67-1.36-50.21,1.31-7.1,3.57-14,5.07-21.05a99.858,99.858,0,0,0,1.14-34.93c-1.4-9.65-4.4-19.44-11-26.7a27.91,27.91,0,0,0-16.6-9c-8.1-1-12.13,3.66-19.35,5.4C508.53,437.6,492.89,427.44,482.62,424Z" transform="translate(-105 -70.89)" fill="url(#linear-gradient-2)"/>
    <path id="Path_61" data-name="Path 61" d="M465.74,335.19s1.19,44.58-13.05,43.41S493,452.51,493,452.51l46.28-24.64S512,384.47,531,357.48,465.74,335.19,465.74,335.19Z" transform="translate(-105 -70.89)" fill="url(#linear-gradient-4)"/>
    <g id="Group_3" data-name="Group 3" opacity="0.1">
      <path id="Path_62" data-name="Path 62" d="M386.22,714.14s-9.49,64.53-33.23,46.93-20.18-46.93-20.18-46.93S379.1,589.78,376.73,571s79-164.7,79-164.7l30.14,239.79S395.71,678.94,386.22,714.14Z" transform="translate(-105 -70.89)" fill="url(#linear-gradient-5)"/>
    </g>
    <path id="Path_63" data-name="Path 63" d="M383.85,714.14s-9.49,64.53-33.23,46.93-20.18-46.93-20.18-46.93S376.73,589.78,374.35,571s79-164.7,79-164.7l30.14,239.79S393.34,678.94,383.85,714.14Z" transform="translate(-105 -70.89)" fill="url(#linear-gradient-5)"/>
    <path id="Path_64" data-name="Path 64" d="M468.11,363.35S421.82,395,404,393.85l-13.83,3.76a75.91,75.91,0,0,0-54.78,58.47l-.22,1.12c-7.1,37.55-9.48,140.8-9.48,140.8s1.19,27,13.05,34l76,51.62s-2.37-56.31,26.11-62.18-7.12-2.35-7.12-2.35l-52.22-30.5s1.19-45.76,15.43-61,64.09-95,64.09-95l-14.24-49.27Z" transform="translate(-105 -70.89)" fill="url(#linear-gradient-7)"/>
    <g id="Group_4" data-name="Group 4" opacity="0.1">
      <path id="Path_65" data-name="Path 65" d="M519.14,393.85s29.15,7.63,49.56,11.36a20.54,20.54,0,0,1,14.84,11.2c6.16,12.71,15.55,35.7,13.93,54.87l17.8,69.22,51,61L620,622.63l-52.2-57.49,42.72,109.11L531,677.77s-23.74-176-17.8-205.31Z" transform="translate(-105 -70.89)" fill="url(#linear-gradient-8)"/>
    </g>
    <path id="Path_66" data-name="Path 66" d="M521.51,393.85s29.15,7.63,49.56,11.36a20.54,20.54,0,0,1,14.84,11.2c6.16,12.71,15.55,35.7,13.93,54.87l17.8,69.22,51,61-46.28,21.12-52.22-57.49L612.9,674.25l-79.52,3.52s-23.74-176-17.8-205.31Z" transform="translate(-105 -70.89)" fill="url(#linear-gradient-5)"/>
    <path id="Path_67" data-name="Path 67" d="M359.21,288.72l16.36,79.41-26.7,13.49-14.63-71.53Z" fill="url(#linear-gradient-7)"/>
    <path id="Path_68" data-name="Path 68" d="M404.05,374l12.46-51.04,16.03,29.92-8.31,24.64Z" fill="url(#linear-gradient-7)"/>
    <path id="Path_69" data-name="Path 69" d="M554.15,460.14s0,79.78,10.68,85.64" transform="translate(-105 -70.89)" opacity="0.1" fill="url(#linear-gradient-7)"/>
    <path id="Path_70" data-name="Path 70" d="M401.05,480.08s-24.63,78.57-17.66,86.8" transform="translate(-105 -70.89)" opacity="0.1" fill="url(#linear-gradient-13)"/>
    <path id="Path_71" data-name="Path 71" d="M396.31,588s47.48,30.69,54,31.18" transform="translate(-105 -70.89)" opacity="0.1" fill="url(#linear-gradient-14)"/>
    <g id="Group_5" data-name="Group 5" opacity="0.1">
      <path id="Path_72" data-name="Path 72" d="M466.92,339.88s.18,6.87-.46,15.14a54.62,54.62,0,0,0,50.3,33,55.565,55.565,0,0,0,8.75-.7c-.31-8.78,1.38-17.59,6.68-25.11C551.18,335.19,466.92,339.88,466.92,339.88Z" transform="translate(-105 -70.89)" fill="url(#linear-gradient-15)"/>
    </g>
    <ellipse id="Ellipse_1" data-name="Ellipse 1" cx="54.59" cy="53.97" rx="54.59" ry="53.97" transform="translate(355.99 204.47)" fill="url(#linear-gradient-7)"/>
    <g id="Group_6" data-name="Group 6" opacity="0.1">
      <path id="Path_73" data-name="Path 73" d="M550.22,306.64c6.61.88,15-1.3,16.31-7.78,1.61-8.18-9.46-13.5-11.17-21.67-.64-3.06.12-6.26-.25-9.37-.74-6.26-5.86-11.08-11.07-14.72a85.87,85.87,0,0,0-56.62-14.92c-2.48.23-5.09.63-7,2.2-2.18,1.77-3,4.65-4.51,7-5.12,8.18-16.62,9.14-24.87,14.24-9.65,6-14.43,17.67-14.86,28.91s2.81,22.27,6,33.07c2.73,9.18,5.59,18.61,11.58,26.13s15.93,12.77,25.34,10.51c-4.31-3.07-1.18-10.2,3.49-12.7s10.47-2.93,14.46-6.38,5.19-9.1,6.49-14.24c1.64-6.48,4-13.06,8.8-17.79C521.75,299.87,538.7,305.11,550.22,306.64Z" transform="translate(-105 -70.89)" fill="url(#linear-gradient-17)"/>
    </g>
    <path id="Path_74" data-name="Path 74" d="M549,305.47c6.61.88,15-1.3,16.31-7.78,1.61-8.18-9.46-13.5-11.17-21.67-.64-3.06.12-6.26-.25-9.37-.74-6.26-5.86-11.08-11.07-14.72A85.87,85.87,0,0,0,486.24,237c-2.48.23-5.09.63-7,2.2-2.18,1.77-3,4.65-4.51,7-5.12,8.18-16.62,9.14-24.87,14.24-9.65,6-14.43,17.67-14.86,28.91s2.81,22.27,6,33.07c2.73,9.18,5.59,18.61,11.58,26.13s15.93,12.77,25.34,10.51c-4.31-3.07-1.18-10.2,3.49-12.7s10.47-2.93,14.46-6.38,5.19-9.1,6.49-14.24c1.64-6.48,4-13.06,8.8-17.79C520.56,298.7,537.51,303.93,549,305.47Z" transform="translate(-105 -70.89)" fill="url(#linear-gradient-18)"/>
    <g id="Group_7" data-name="Group 7" opacity="0.1">
      <path id="Path_75" data-name="Path 75" d="M506.14,336.61c-.8,5.58-2.58,15.24-5.93,21.34a170.658,170.658,0,0,0-11.33,24.76h0s21.86,16.73,33,28.16a25.92,25.92,0,0,0,27.22,6.59c5.79-2.08,10.86-6.1,12.21-13.64,2.12-11.89-.4-20.86-2.78-26.17a19.45,19.45,0,0,1-.08-16c.82-1.8,1.78-3.21,2.85-3.56,0,0-21.36-4.69-22.55,1.17s-17.8,11.73-21.36,1.17l-1-23.28a5.12,5.12,0,0,0-5.14-4.88h0a5.12,5.12,0,0,0-5.11,4.34Z" transform="translate(-105 -70.89)" fill="url(#linear-gradient-19)"/>
    </g>
    <path id="Path_76" data-name="Path 76" d="M506.14,337.79c-.8,5.58-2.58,15.24-5.93,21.34a170.656,170.656,0,0,0-11.33,24.76h0s21.86,16.73,33,28.16a25.92,25.92,0,0,0,27.22,6.59c5.79-2.08,10.86-6.1,12.21-13.64,2.12-11.89-.4-20.86-2.78-26.17a19.45,19.45,0,0,1-.08-16c.82-1.8,1.78-3.21,2.85-3.56,0,0-21.36-4.69-22.55,1.17s-17.8,11.73-21.36,1.17l-1-23.28a5.12,5.12,0,0,0-5.14-4.88h0a5.12,5.12,0,0,0-5.11,4.34Z" transform="translate(-105 -70.89)" fill="url(#linear-gradient-20)"/>
  </g>
  <path id="Path_77" data-name="Path 77" d="M469.27,677s-83.17-30.76-94.56,12.53l31.9,82L410,824h69.5V779.55s-10.25-44.43,16-71.78Z" transform="translate(-105 -70.89)" fill="#535461"/>
  <path id="Path_78" data-name="Path 78" d="M483.2,432.89c-3.53-1.18-7.79-2.24-10.66.12-1.67,1.37-2.39,3.57-3.69,5.3-4.31,5.72-13,4.65-19.86,6.7-10.09,3-16.31,13.12-19.89,23-15.8,43.69,1.81,93.69-11.94,138.06-4,13.06-10.67,27.56-4.13,39.57,2.18,4,5.73,7.35,6.82,11.78,1.48,6-1.37,13.9,3.61,17.56,1.55,1.14,3.52,1.49,5.38,2,11.21,3,19.71,11.82,28.25,19.67s18.82,15.44,30.4,14.93a49,49,0,0,0,11-2.21l57.5-16.2c5.77-1.63,12-3.59,15.37-8.56,2-3,2.69-6.78,3.21-10.41a277.389,277.389,0,0,0,2.81-41.69c0-4.6-.21-9.31-1.9-13.59-2-4.94-5.76-8.89-8.56-13.42-5.39-8.72-6.85-19.24-8.18-29.41-2.12-16.19-4.24-32.7-1.31-48.76,1.26-6.89,3.43-13.59,4.87-20.44a98.081,98.081,0,0,0,1.1-33.92c-1.34-9.37-4.23-18.88-10.55-25.93a26.71,26.71,0,0,0-15.94-8.74c-7.78-1-11.65,3.56-18.58,5.25C508.08,446.06,493.06,436.19,483.2,432.89Z" transform="translate(-105 -70.89)" opacity="0.1"/>
  <path id="Path_79" data-name="Path 79" d="M483.2,430.61c-3.53-1.18-7.79-2.24-10.66.12-1.67,1.37-2.39,3.57-3.69,5.3-4.31,5.72-13,4.65-19.86,6.7-10.09,3-16.31,13.12-19.89,23-15.8,43.69,1.81,93.69-11.94,138.06-4,13.06-10.67,27.56-4.13,39.57,2.18,4,5.73,7.35,6.82,11.78,1.48,6-1.37,13.9,3.61,17.56,1.55,1.14,3.52,1.49,5.38,2,11.21,3,19.71,11.82,28.25,19.67s18.82,15.44,30.4,14.93a49,49,0,0,0,11-2.21L556,690.9c5.77-1.63,12-3.59,15.37-8.56,2-3,2.69-6.78,3.21-10.41a277.4,277.4,0,0,0,2.81-41.69c0-4.6-.21-9.31-1.9-13.59-2-4.94-5.76-8.89-8.56-13.42-5.39-8.72-6.85-19.24-8.18-29.41-2.12-16.19-4.24-32.7-1.31-48.76,1.26-6.89,3.43-13.59,4.87-20.44a98.081,98.081,0,0,0,1.1-33.92c-1.34-9.37-4.23-18.88-10.55-25.93A26.71,26.71,0,0,0,536.95,436c-7.78-1-11.65,3.56-18.58,5.25C508.08,443.79,493.06,433.91,483.2,430.61Z" transform="translate(-105 -70.89)" fill="#e0e0e0"/>
  <path id="Path_80" data-name="Path 80" d="M467,344.33s1.14,43.29-12.53,42.15,38.74,71.78,38.74,71.78l44.43-23.93s-26.2-42.15-8-68.36S467,344.33,467,344.33Z" transform="translate(-105 -70.89)" fill="#fda57d"/>
  <path id="Path_81" data-name="Path 81" d="M390.66,712.33s-9.11,62.66-31.9,45.57-19.37-45.57-19.37-45.57,44.43-120.77,42.15-139,75.88-159.95,75.88-159.95l28.93,232.86S399.77,678.15,390.66,712.33Z" transform="translate(-105 -70.89)" opacity="0.1"/>
  <path id="Path_82" data-name="Path 82" d="M388.38,712.33s-9.11,62.66-31.9,45.57-19.37-45.57-19.37-45.57,44.43-120.77,42.15-139,75.88-159.95,75.88-159.95l28.93,232.86S397.49,678.15,388.38,712.33Z" transform="translate(-105 -70.89)" fill="#4d8af0"/>
  <path id="Path_83" data-name="Path 83" d="M469.27,371.67s-44.43,30.76-61.52,29.62l-13.28,3.65a73.38,73.38,0,0,0-52.59,56.78l-.21,1.09c-6.84,36.46-9.11,136.72-9.11,136.72s1.14,26.2,12.53,33L418,682.71s-2.28-54.69,25.07-60.38-6.84-2.28-6.84-2.28L386.1,590.42s1.14-44.43,14.81-59.24,61.52-92.28,61.52-92.28L448.76,391Z" transform="translate(-105 -70.89)" fill="#4d8af0"/>
  <path id="Path_84" data-name="Path 84" d="M518.26,401.3s28,7.41,47.58,11a19.74,19.74,0,0,1,14.24,10.88c5.91,12.35,14.92,34.66,13.37,53.28l17.09,67.22,49,59.24L615.1,623.46,565,567.64l41,106L529.66,677s-22.79-170.9-17.09-199.38Z" transform="translate(-105 -70.89)" opacity="0.1"/>
  <path id="Path_85" data-name="Path 85" d="M520.54,401.3s28,7.41,47.58,11a19.74,19.74,0,0,1,14.24,10.88c5.91,12.35,14.92,34.66,13.37,53.28l17.09,67.22,49,59.24-44.43,20.51L567.26,567.6l41,106L531.93,677s-22.79-170.9-17.09-199.38Z" transform="translate(-105 -70.89)" fill="#4d8af0"/>
  <path id="Path_86" data-name="Path 86" d="M360.53,297.16l15.71,77.11-25.64,13.1-14.04-69.46Z" fill="#e0e0e0"/>
  <path id="Path_87" data-name="Path 87" d="M403.58,379.97l11.96-49.56,15.38,29.05-7.97,23.93Z" fill="#e0e0e0"/>
  <path id="Path_88" data-name="Path 88" d="M551.87,465.67s0,77.47,10.25,83.17" transform="translate(-105 -70.89)" opacity="0.1"/>
  <path id="Path_89" data-name="Path 89" d="M404.9,485s-23.65,76.3-17,84.29" transform="translate(-105 -70.89)" opacity="0.1"/>
  <path id="Path_90" data-name="Path 90" d="M400.34,589.85s45.58,29.8,51.84,30.28" transform="translate(-105 -70.89)" opacity="0.1"/>
  <path id="Path_91" data-name="Path 91" d="M468.13,348.89s.18,6.67-.44,14.7a52.42,52.42,0,0,0,56.69,31.33c-.3-8.53,1.33-17.08,6.41-24.39C549,344.33,468.13,348.89,468.13,348.89Z" transform="translate(-105 -70.89)" opacity="0.1"/>
  <circle id="Ellipse_2" data-name="Ellipse 2" cx="52.41" cy="52.41" r="52.41" transform="translate(357.43 215.34)" fill="#fda57d"/>
  <path id="Path_92" data-name="Path 92" d="M548.09,316.61c6.35.85,14.44-1.27,15.66-7.55,1.55-7.95-9.08-13.11-10.72-21-.62-3,.12-6.08-.24-9.09-.71-6.08-5.63-10.76-10.63-14.29a81.73,81.73,0,0,0-54.35-14.48c-2.38.23-4.89.61-6.73,2.13-2.09,1.72-2.9,4.51-4.33,6.82-4.92,7.94-16,8.88-23.87,13.83-9.27,5.79-13.85,17.16-14.27,28.08s2.7,21.63,5.78,32.11c2.62,8.92,5.37,18.07,11.12,25.37s15.3,12.4,24.32,10.2c-4.14-3-1.13-9.91,3.35-12.33s10-2.84,13.89-6.2,5-8.84,6.23-13.83c1.58-6.3,3.86-12.68,8.45-17.28C520.77,310,537,315.12,548.09,316.61Z" transform="translate(-105 -70.89)" opacity="0.1"/>
  <path id="Path_93" data-name="Path 93" d="M547,315.47c6.35.85,14.44-1.27,15.66-7.55,1.55-7.95-9.08-13.11-10.72-21-.62-3,.12-6.08-.24-9.09-.76-6.13-5.7-10.83-10.7-14.34A81.73,81.73,0,0,0,486.68,249c-2.38.23-4.89.61-6.73,2.13-2.09,1.72-2.9,4.51-4.33,6.82-4.92,7.94-16,8.88-23.87,13.83-9.27,5.79-13.85,17.16-14.27,28.08s2.7,21.63,5.78,32.11c2.62,8.92,5.37,18.07,11.12,25.37s15.3,12.4,24.32,10.2c-4.14-3-1.13-9.91,3.35-12.33s10-2.84,13.89-6.2,5-8.84,6.23-13.83c1.58-6.3,3.86-12.68,8.45-17.28C519.63,308.89,535.9,314,547,315.47Z" transform="translate(-105 -70.89)" fill="#72351c"/>
  <path id="Path_94" data-name="Path 94" d="M505.78,345.71c-.77,5.42-2.48,14.8-5.7,20.72a166.658,166.658,0,0,0-10.88,24h0s21,16.25,31.65,27.35a24.68,24.68,0,0,0,26.13,6.4c5.56-2,10.43-5.93,11.72-13.24,2-11.55-.38-20.26-2.66-25.42A19.09,19.09,0,0,1,556,370c.79-1.75,1.71-3.11,2.74-3.46,0,0-20.51-4.56-21.65,1.14s-17.09,11.39-20.51,1.14l-.94-22.61a4.94,4.94,0,0,0-4.94-4.74h0a4.93,4.93,0,0,0-4.92,4.24Z" transform="translate(-105 -70.89)" opacity="0.1"/>
  <path id="Path_95" data-name="Path 95" d="M505.78,346.85c-.77,5.42-2.48,14.8-5.7,20.72a166.661,166.661,0,0,0-10.88,24h0s21,16.25,31.65,27.35a24.68,24.68,0,0,0,26.13,6.4c5.56-2,10.43-5.93,11.72-13.24,2-11.55-.38-20.26-2.66-25.42a19.09,19.09,0,0,1-.07-15.56c.79-1.75,1.71-3.11,2.74-3.46,0,0-20.51-4.56-21.65,1.14S520,380.22,516.55,370l-.94-22.61a4.94,4.94,0,0,0-4.94-4.74h0A4.93,4.93,0,0,0,505.78,346.85Z" transform="translate(-105 -70.89)" fill="#72351c"/>
  <path id="Path_96" data-name="Path 96" d="M913,671s-20.59-20.61-28.16-48h1.77l-.85-2.38h.85L883.93,613c7.59-7.46,13.2-14.69,14.11-18.8,1.54-6.92,3.07-44.36,4-70.38l.82.2c2-3.42,2.42-7.73,2.28-11.64a45.128,45.128,0,0,0-1.68-13l-3.71-37.15A25.34,25.34,0,0,0,890,444.78l-37.6-29.17a23.91,23.91,0,0,1,7.38-6.54c2.15-1.14,4.65-1.92,6.1-3.87,2.62-3.53.39-8.79,2.18-12.81,1.34-3,4.64-4.68,6.57-7.37,3.95-5.51,1.09-13.12-1.86-19.22l-17.14-35.43c-4.75-9.81-9.54-19.7-16.18-28.34-20.33-26.48-59.45-39.65-91.34-28.17-9.09,3.27-17.46,9.55-21.34,18.39-1.35,3.08-2.16,6.44-4.12,9.17-4.37,6.09-12.9,7.24-19,11.62-7.79,5.63-10.68,16.23-9.59,25.78s5.47,18.37,9.79,27c4.54,9,9.23,18.27,16.68,25.09,3.48,3.19,7.74,6.15,8.85,10.74.95,3.94-.73,8-.38,12.08a12.29,12.29,0,0,0,1.46,4.84c-16.83,2.11-28.77,16.09-34.12,36.89-.33,1.29-.46,2-.46,2L693.51,479c-.05.93,0,1.83,0,2.72a28.329,28.329,0,0,0,3,14v75.63l-72,45.58c-10.8,4.8-8.4,43.19,13.2,50.38S678.52,629,678.52,629c13.15-.88,35.27-18.42,47.16-32a21.669,21.669,0,0,0,6.27,6.53c-8.58,19.34-25.55,59.35-22.84,67.47,1.63,4.9,43.77,5.35,89.32,4.39a21.764,21.764,0,0,0,3.65,1.61c4.86,1.62,9.6.56,14-2.05C865.36,673.54,913,671,913,671ZM852.19,524.35c1-2.77,4.28-4.28,8.67-5v29.17ZM848,421.85h0l.14-.21Z" transform="translate(-105 -70.89)" fill="url(#linear-gradient-21)"/>
  <path id="Path_97" data-name="Path 97" d="M739.86,487.89s-2.28,80.89-4.56,91.15S700,620,682.89,621.19c0,0-18.23,43.29-38.74,36.46s-22.79-43.29-12.53-47.85L700,566.5V479.91Z" transform="translate(-105 -70.89)" fill="#fdb797"/>
  <path id="Path_98" data-name="Path 98" d="M738.15,587s-29.62,63.8-26.2,74.06,193.68,0,193.68,0S870.31,625.74,877.15,587Z" transform="translate(-105 -70.89)" fill="#3ad29f"/>
  <path id="Path_99" data-name="Path 99" d="M760.94,397.88s4.56,44.43-3.42,54.69,31.9,16,35.32,16,39.88-12.53,46.71-16,12.53-28.48,12.53-28.48-34.18,6.84-44.43-33Z" transform="translate(-105 -70.89)" fill="#fdb797"/>
  <path id="Path_100" data-name="Path 100" d="M749,283.9c-8.63,3.11-16.59,9.07-20.27,17.47-1.28,2.92-2.05,6.11-3.91,8.71-4.15,5.78-12.25,6.87-18,11-7.4,5.35-10.14,15.41-9.11,24.49s5.19,17.45,9.29,25.61c4.31,8.57,8.77,17.35,15.84,23.83,3.3,3,7.35,5.84,8.4,10.2.9,3.74-.69,7.65-.36,11.48.82,9.47,12.14,13.88,21.59,14.93,4.11.46,8.81.48,11.71-2.47,1.48-1.52,2.23-3.58,3.16-5.48a26.27,26.27,0,0,1,46.86-.48c2.22,4.26,3.51,9.44,7.54,12,6.17,4,14.43-.69,19-6.47s7.85-13,14.34-16.47c2-1.09,4.42-1.82,5.8-3.68,2.49-3.35.37-8.35,2.07-12.16,1.28-2.87,4.41-4.44,6.24-7,3.75-5.23,1-12.46-1.77-18.25l-16.28-33.65c-4.51-9.32-9.06-18.71-15.36-26.92C816.43,285.51,779.28,273,749,283.9Z" transform="translate(-105 -70.89)" fill="#6c63ff"/>
  <path id="Path_101" data-name="Path 101" d="M790.56,460.54s44.43,0,55.83-41l37.4,29a24.06,24.06,0,0,1,9.2,16.63l3.53,35.28s4,13.1-.57,21.08c0,0-47.28-12-48.42,1.71l33,92.28s-51.27,1.14-64.94-8c0,0-55.83,11.39-69.5-1.14s-27.34-11.39-16-39.88c0,0-22.79-22.79-12.53-54.69s.57.57.57.57S696,501.56,697.14,481l2.28-20.51s.12-.68.44-1.9c6.95-27,25.61-42,51.85-32.44,7.67,2.78,15.51-.41,15.51-.41S758.66,462.82,790.56,460.54Z" transform="translate(-105 -70.89)" opacity="0.1"/>
  <path id="Path_102" data-name="Path 102" d="M790.56,458.26s44.43,0,55.83-41l37.4,29a24.06,24.06,0,0,1,9.2,16.63l3.53,35.28s4,13.1-.57,21.08c0,0-47.28-12-48.42,1.71l33,92.28s-51.27,1.14-64.94-8c0,0-55.83,11.39-69.5-1.14s-27.34-11.39-16-39.88c0,0-22.79-22.79-12.53-54.69s.57.57.57.57S696,499.28,697.14,478.77l2.28-20.51s.12-.68.44-1.9c6.95-27,25.61-42,51.85-32.44,7.67,2.78,15.51-.41,15.51-.41S758.66,460.54,790.56,458.26Z" transform="translate(-105 -70.89)" fill="#252a62"/>
  <path id="Path_103" data-name="Path 103" d="M895.95,497s-2.28,80.89-4.56,91.15-35.32,41-52.41,42.15c0,0-18.23,43.29-38.74,36.46s-22.79-43.29-12.53-47.85l68.36-43.29V489Z" transform="translate(-105 -70.89)" fill="#fdb797"/>
  <path id="Path_104" data-name="Path 104" d="M847,499.85s26.2,17.78,49,16.3c0,0,2.28-30.54-4.56-32.25S854.93,483.9,847,499.85Z" transform="translate(-105 -70.89)" opacity="0.1"/>
  <path id="Path_105" data-name="Path 105" d="M847,498.71s26.2,17.78,49,16.3c0,0,2.28-30.54-4.56-32.25S854.93,482.76,847,498.71Z" transform="translate(-105 -70.89)" fill="#252a62"/>
  <path id="Path_106" data-name="Path 106" d="M809.93,393.32l-46.71,6.84s1.05,10.28,1.26,22.09a52.43,52.43,0,0,0,55-8.94C815.54,408.5,812.17,402,809.93,393.32Z" transform="translate(-105 -70.89)" opacity="0.1"/>
  <circle id="Ellipse_3" data-name="Ellipse 3" cx="52.41" cy="52.41" r="52.41" transform="translate(625.18 248.38)" fill="#fdb797"/>
  <path id="Path_107" data-name="Path 107" d="M796.4,361.6a16.37,16.37,0,0,1-7,1q-13.9-.09-27.79-1c-7-.47-14.5-1.3-19.91-5.79-7.28-6-8.43-17.37-4.67-26.05s11.43-15.08,19.53-20a58.279,58.279,0,0,1,14.72-6.64c15-4.08,31.64.93,43.57,10.93s19.54,24.44,23.57,39.48c1.39,5.2,3.18,11.4,8.33,13-3.43,5.7-11.8,6.61-17.8,3.75-8.86-4.21-13.4-20.33-21.35-22.87C798.73,344.56,803.89,358.16,796.4,361.6Z" transform="translate(-105 -70.89)" opacity="0.1"/>
  <path id="Path_108" data-name="Path 108" d="M796.4,360.46a16.37,16.37,0,0,1-7,1q-13.9-.09-27.79-1c-7-.47-14.5-1.3-19.91-5.79-7.28-6-8.43-17.37-4.67-26.05s11.43-15.08,19.53-20A58.278,58.278,0,0,1,771.27,302c15-4.08,31.64.93,43.57,10.93s19.54,24.44,23.57,39.48c1.39,5.2,3.18,11.4,8.33,13-3.43,5.7-11.8,6.61-17.8,3.75-8.86-4.21-13.4-20.33-21.35-22.87C798.73,343.42,803.89,357,796.4,360.46Z" transform="translate(-105 -70.89)" fill="#6c63ff"/>
  <path id="Path_109" data-name="Path 109" d="M729.61,563.65A201.829,201.829,0,0,1,782,556.81" transform="translate(-105 -70.89)" opacity="0.1"/>
  <path id="Path_110" data-name="Path 110" d="M847,502.13s-17.09,12.53-12.53,19.37" transform="translate(-105 -70.89)" opacity="0.1"/>
  <g id="Group_9" data-name="Group 9" opacity="0.7">
    <path id="Path_111" data-name="Path 111" d="M859.31,555.42H299.9v48.92h32.56V758.22H827.91V604.34h31.4Z" fill="url(#linear-gradient-22)"/>
  </g>
  <rect id="Rectangle_2" data-name="Rectangle 2" width="485.35" height="174.32" transform="translate(337.5 583.91)" fill="#e0e0e0"/>
  <rect id="Rectangle_3" data-name="Rectangle 3" width="485.35" height="27.34" transform="translate(337.5 593.02)" opacity="0.1"/>
  <rect id="Rectangle_4" data-name="Rectangle 4" width="548.01" height="46.71" transform="translate(305.6 564.54)" fill="#e0e0e0"/>
  <rect id="Rectangle_5" data-name="Rectangle 5" width="104.82" height="14.81" rx="6.5" transform="translate(384.14 553.04)" fill="#535461"/>
  <g id="Group_10" data-name="Group 10" opacity="0.7">
    <rect id="Rectangle_6" data-name="Rectangle 6" width="260.52" height="180.13" rx="28.22" transform="translate(447.94 387.91)" fill="url(#linear-gradient-22)"/>
  </g>
  <rect id="Rectangle_7" data-name="Rectangle 7" width="246.79" height="176.8" rx="26.84" transform="translate(452.58 391.23)" fill="#3e3f49"/>
  <rect id="Rectangle_8" data-name="Rectangle 8" width="246.79" height="176.8" rx="26.84" transform="translate(456 391.23)" fill="#535461"/>
  <circle id="Ellipse_4" data-name="Ellipse 4" cx="7.98" cy="7.98" r="7.98" transform="translate(582.94 470.44)" fill="#e0e0e0"/>
  <path id="Path_112" data-name="Path 112" d="M369.58,658.21s6.74,9.89,26.73,12.92" transform="translate(-105 -70.89)" opacity="0.1"/>
  <path id="Path_113" data-name="Path 113" d="M548,150.89H477v-40h71Zm-68-3h65v-34H480Z" transform="translate(-105 -70.89)" fill="#6c63ff" opacity="0.2"/>
  <path id="Path_114" data-name="Path 114" d="M619,150.89H548v-40h71Zm-68-3h65v-34H551Z" transform="translate(-105 -70.89)" fill="#6c63ff" opacity="0.2"/>
  <path id="Path_115" data-name="Path 115" d="M690,150.89H619v-40h71Zm-68-3h65v-34H622Z" transform="translate(-105 -70.89)" fill="#6c63ff" opacity="0.2"/>
  <path id="Path_116" data-name="Path 116" d="M761,150.89H690v-40h71Zm-68-3h65v-34H693Z" transform="translate(-105 -70.89)" fill="#6c63ff" opacity="0.2"/>
  <path id="Path_117" data-name="Path 117" d="M690,110.89H619v-40h71Zm-68-3h65v-34H622Z" transform="translate(-105 -70.89)" fill="#6c63ff" opacity="0.2"/>
  <path id="Path_118" data-name="Path 118" d="M619,110.89H548v-40h71Zm-68-3h65v-34H551Z" transform="translate(-105 -70.89)" fill="#6c63ff" opacity="0.2"/>
  <path id="Path_119" data-name="Path 119" d="M285,150.89H214v-40h71Zm-68-3h65v-34H217Z" transform="translate(-105 -70.89)" fill="#6c63ff" opacity="0.2"/>
  <path id="Path_120" data-name="Path 120" d="M356,150.89H285v-40h71Zm-68-3h65v-34H288Z" transform="translate(-105 -70.89)" fill="#6c63ff" opacity="0.2"/>
  <path id="Path_121" data-name="Path 121" d="M356,110.89H285v-40h71Zm-68-3h65v-34H288Z" transform="translate(-105 -70.89)" fill="#6c63ff" opacity="0.2"/>
  <path id="Path_122" data-name="Path 122" d="M905,150.89H834v-40h71Zm-68-3h65v-34H837Z" transform="translate(-105 -70.89)" fill="#6c63ff" opacity="0.2"/>
  <path id="Path_123" data-name="Path 123" d="M976,150.89H905v-40h71Zm-68-3h65v-34H908Z" transform="translate(-105 -70.89)" fill="#6c63ff" opacity="0.2"/>
  <path id="Path_124" data-name="Path 124" d="M976,110.89H905v-40h71Zm-68-3h65v-34H908Z" transform="translate(-105 -70.89)" fill="#6c63ff" opacity="0.2"/>
</svg>
