<svg xmlns="http://www.w3.org/2000/svg" width="256.837" height="324.259" viewBox="0 0 256.837 324.259">
  <g id="humaaans_sitting-5" data-name="humaaans/sitting-5" transform="translate(-39 -52.741)">
    <g id="A-Human_Sitting" data-name="A-Human/Sitting" transform="translate(340 24) rotate(180)">
      <g id="Head_Front_Hijab-1" data-name="Head/Front/Hijab-1" transform="translate(82)">
        <g id="Head" transform="translate(54 -31)">
          <path id="Path_1" data-name="Path 1" d="M8.262-34.49C3.654-29.081.536-22.453,1.057-15.026c1.5,21.4,31.292,16.693,37.087,5.892s5.106-38.2-2.383-40.13c-2.987-.77-9.349,1.116-15.825,5.019L24-73H0Z" fill="#b28b67" fill-rule="evenodd"/>
        </g>
        <g id="Hijab" transform="translate(36 -28)">
          <path id="Front" d="M50.735-5.011c-.55.328-1.7,1.02-2.283,1.271-.138.06-1.1.749-1.129.74-.731-.247-2.848-1.157-3.029-1.944-.028-.06-.056-.116-.083-.164-.3-.545-.575-1.1-.838-1.67C42.8-8.019,42.3-9.317,41.825-10.6c-.925-2.507-1.729-5.073-2.468-7.644-.752-2.618-1.391-5.266-2.105-7.895-1.028-3.782-2.345-7.472-3.366-11.253a22.186,22.186,0,0,1-.844-7.341c0-.03,0-.059.005-.09,0-.013,0-.025,0-.037q.044-.573.126-1.149c.048-.328.1-.658.149-.987.933,1.86,1.645,3.91,2.4,5.856.074.191.145.382.213.575q.366.592.744,1.177c1.585,2.461,3.176,4.913,4.7,7.419a133.671,133.671,0,0,0,8.682,13.246c.957,1.222,1.936,2.425,2.881,3.657q.807,1.051,1.568,2.139c.362.519,1.937,2.327,1.367,3.413A29.362,29.362,0,0,1,50.735-5.011Z" fill="#2c2c2c" fill-rule="evenodd"/>
          <path id="Turban" d="M48.626-3.831c.535-.18.275.933-.243,1.324-2.4,1.814-11.57,2.472-19.551.815A38.722,38.722,0,0,1,13-9.115c-3.85-3.2-6.5-8.334-7.86-13.292a38.626,38.626,0,0,1-.851-15.974c.175-1.173.552-2.29.761-3.438a26.625,26.625,0,0,1,.778-3.795c.258-.77.7-1.525.916-2.3a5.284,5.284,0,0,0-.085-2.6,28.4,28.4,0,0,0-1.194-4.326c-.79-2.1-1.748-4.068-2.349-6.248-.8-2.9-4.143-12.34-1.7-14.913H47.932c-1.171,3.2-4.687,6.956-5.4,10.376-.419,2.015-.619,6.415-.663,6.575-1.048,7.226-3.1,10.677-4.377,11.93S34.5-45.482,34.416-44.4c-.364,4.493,1.423,8.8,2.733,12.991,1.561,5,2.706,10.119,4.315,15.1C42.177-14.1,45.85-2.9,48.626-3.831Z" fill="#8991dc" fill-rule="evenodd"/>
          <path id="Shade" d="M32.316-9c-1.754-5.566-2.131-8.537-1.754-16.142H29.7C28.094-17.965,29.524-11.209,31.235-9ZM8.782-23.364C12.051-31.3,13.542-35.98,22.67-42.4l-.7-.493c-9.062,5.136-11.7,11.262-13.871,19.2Zm13.431,8.072C23.7-26.551,24.132-32.982,31.866-45.3l-.823-.252c-7.96,10.723-9.222,19.475-9.6,30.2ZM13.67-48.736l.7.856c9.607-3.009,8.537-9.222,20.638-15.514L34-64.007C23.4-59.634,20.928-50.255,13.67-48.736Z" fill="rgba(0,0,0,0.2)" fill-rule="evenodd"/>
        </g>
      </g>
      <g id="Bottom_Sitting_Skinny-Jeans-1" data-name="Bottom/Sitting/Skinny-Jeans-1" transform="translate(0 -187)">
        <g id="Objects_Seat_Cube" data-name="Objects/Seat/Cube" transform="translate(10 -42)">
          <g id="Seat" transform="translate(55)">
            <path id="Seat-Stuff" d="M27.623,0h77.254L115-124H0Z" fill="#c5cfd6" fill-rule="evenodd"/>
            <path id="Seat-Stuff-2" data-name="Seat-Stuff" d="M27.623,0h23.76L65.6-124H0Z" fill="rgba(0,0,0,0.1)" fill-rule="evenodd"/>
          </g>
        </g>
        <path id="Skin" d="M257.953-20.756c8.237,4.946,22.056-1.409,22.047-8.482-.028-21.165-19.343-120.913-20.352-127.219s-11.811-7.971-12.44-.02c-1,12.65-2.861,56.444-1,76.714.768,8.367,1.6,16.336,2.409,23.445q-15.2-27.454-47.024-78.616l-11.516,5.262q13.564,44.694,22.246,63.105c9.91,21.017,19.2,39.015,23.113,45.354C241.588-11.24,252.295-14.719,257.953-20.756Z" fill="#b28b67" fill-rule="evenodd"/>
        <path id="LegLower" d="M208.818-123.34l5.118,101.51c3.688,17.552,34.907,9.406,34.894,0-.029-21.355-12.857-95.127-12.866-101.489Z" transform="translate(36.859 74.197) rotate(-20)" fill="#1f28cf" fill-rule="evenodd"/>
        <g id="Accessories_Shoe_Flat-Sneaker" data-name="Accessories/Shoe/Flat-Sneaker" transform="matrix(0.866, -0.5, 0.5, 0.866, 199.086, -100.429)">
          <path id="shoe" d="M2.678-25.4A21.472,21.472,0,0,1,1-32.106,50.177,50.177,0,0,1,1.9-40H58.3q2.2,7.268-2.538,7.848T47.9-31.106L21.68-19.419a1,1,0,0,1-1.321-.506l-.011-.026-1.685-4.088a17.983,17.983,0,0,0-7.127-2.046,16.139,16.139,0,0,0-6.152,1.8h0a2,2,0,0,1-2.652-.985Q2.7-25.335,2.678-25.4Z" fill="#e4e4e4" fill-rule="evenodd"/>
        </g>
        <g id="Accessories_Shoe_Flat-Sneaker-2" data-name="Accessories/Shoe/Flat-Sneaker" transform="translate(242 -126)">
          <path id="shoe-2" data-name="shoe" d="M2.678-25.4A21.472,21.472,0,0,1,1-32.106,50.177,50.177,0,0,1,1.9-40H58.3q2.2,7.268-2.538,7.848T47.9-31.106L21.68-19.419a1,1,0,0,1-1.32-.506l-.011-.026-1.685-4.088a17.983,17.983,0,0,0-7.127-2.046,16.139,16.139,0,0,0-6.152,1.8h0a2,2,0,0,1-2.652-.985Q2.7-25.335,2.678-25.4Z" fill="#e4e4e4" fill-rule="evenodd"/>
        </g>
        <path id="Leg-and-Butt" d="M282.77-36.433c0-26.567-12.616-88.537-12.624-94.387L243-130.841Q248.96-47.9,247.227-47c-1.734.894-71.051-6.921-91.841-6.921C125.408-53.925,113.006-35.02,112,0h59.386c12.092-1.294,75.163-14.015,98.586-18.388C280-20.261,282.77-29.115,282.77-36.433Z" fill="#2b44ff" fill-rule="evenodd"/>
      </g>
      <g id="Body_Turtle-Neck" data-name="Body/Turtle-Neck" transform="translate(22 -82)">
        <path id="Skin-2" data-name="Skin" d="M199.493-92.46,227.821-120.1a85.847,85.847,0,0,0,20.26-11.647c1.184-1.428,2.473-4.164-3.1-2.94s-11.484,2.262-12.531.451,2.038-4.588.1-6.958q-1.935-2.372-13.014,15.081L190.084-108.74ZM60.97-67.45l21.9-.082Q57.85-148.583,56.308-152.406c-2.314-5.734,2.583-14.468,4.677-19.161-6.82-3.052-6.093,8.25-14.7,4.248-7.853-3.654-13.826-10.273-22.9-4.675-1.115.688-2.338,3.279.616,5.3,7.358,5.045,17.961,13.875,19.393,16.782Q46.328-143.964,60.97-67.45Z" fill="#b28b67" fill-rule="evenodd"/>
        <path id="Clothes-Back" d="M122.767-9.714l8.485,2.231c17.767-46.781,90.35-73.378,96.2-90.936,2.145-6.439-2.3-10.177.323-11.966l-10.48-9.176c-2.089,2.046-5.782-2.355-14.479-.263S127.737-66.513,122.767-9.714Z" transform="translate(6.241 15.045) rotate(-5)" fill="#db2721" fill-rule="evenodd"/>
        <path id="Clothes-Front" d="M142.241-11.734c-1-63.749,35.855-80.011,27.646-105.584-6.778-21.119-71.66-43.821-82.887-23.12-4.545,8.38-6.607,18.514-6.841,29.532q-4.3-12.7-6.808-21.861c-2.88-10.54-14.045-12.216-14.045-16.276l-14.71,4.06c1,5.516-5.937,8.2-4.077,20.526q12.5,82.826,67.15,120.076l.377,5.391a4,4,0,0,0,4.27,3.711L139.25,2.838a4,4,0,0,0,3.711-4.269Z" fill="#ff4133" fill-rule="evenodd"/>
      </g>
    </g>
  </g>
</svg>
